<svg xmlns="http://www.w3.org/2000/svg" viewBox="0 0 500 500"><g id="freepik--Character--inject-5"><path d="M187.82,272.48l-5.48,15.2s-30.21,44.14-38.66,57.65-7.45,11.83-7,16.48,20.07,69.11,20.49,75.87a75.46,75.46,0,0,1,0,11l8-1.27a35.73,35.73,0,0,1-4.64,8.45c-3,3.8-3.38,5.48-8.45,9.28s-8.86,3.8-5.91,5.49,15.62,1.69,19.42-.84,6.34-7.18,8.45-9.29l3.38-3.38,1.26,3.8s4.23-4.64,5.91-5.49,3-3.38,3-3.38-1.27-3.37-2.53-5.91-6.34-6.33-6.34-6.33-3.65-35-7-51.48-1.21-16.79-2.06-19.33a43.86,43.86,0,0,0-2.11-5.06L203,318.15a2.61,2.61,0,0,1,1.12-.69h0a2.58,2.58,0,0,1,3.31,2.65c-.9,13.32-2.38,52.12-.58,57.51,2.11,6.33,17.4,29.8,18.57,32.09,3,5.87,17.17,24.2,19.71,29.69s5.06,11.4,5.06,11.4l7.6-4.64s2.12,2.95,0,5.49-8.44,12.24-13.08,15.2-3,5.49-3,5.49,16.89-.43,19.84-.85,5.07-3.8,7.18-6.75a89.18,89.18,0,0,0,5.07-8.87l3.38,3s2.11-4.23,3.38-7.61a21.7,21.7,0,0,0,1.26-6.75s-5.06-4.65-8.44-5.91-6.34-2.54-6.34-2.54l-4.22-6.33s-11.4-39.69-16.47-49.4a58.13,58.13,0,0,0-10.55-14.78s13.65-50,16.18-60.94a168.77,168.77,0,0,0,3.38-19.85A86.48,86.48,0,0,0,219.91,270C198.38,266.15,187.82,272.48,187.82,272.48Z" style="fill:#263238;stroke:#263238;stroke-linecap:round;stroke-linejoin:round"></path><path d="M209.86,277.8v4.78s-7.44,7.44-6.64,9.84,2.66,13,2.66,13" style="fill:none;stroke:#7a7a7a;stroke-linecap:round;stroke-linejoin:round"></path><path d="M215.18,278.06l.53,5.32s-6.91,8.77-7.18,10.1a16.72,16.72,0,0,0,.27,4.25" style="fill:none;stroke:#7a7a7a;stroke-linecap:round;stroke-linejoin:round"></path><path d="M222.62,282.05A94.08,94.08,0,0,1,241,289.23" style="fill:none;stroke:#7a7a7a;stroke-linecap:round;stroke-linejoin:round"></path><path d="M241.27,292.86a128.66,128.66,0,0,0-13.86-4.7" style="fill:none;stroke:#7a7a7a;stroke-linecap:round;stroke-linejoin:round"></path><path d="M247.61,295.34l-3-1.18" style="fill:none;stroke:#7a7a7a;stroke-linecap:round;stroke-linejoin:round"></path><path d="M222.13,306.93c5.11-1.8,11.82-3.63,17.51-3.35" style="fill:none;stroke:#7a7a7a;stroke-linecap:round;stroke-linejoin:round"></path><path d="M214.12,310.23s1.53-.75,4-1.75" style="fill:none;stroke:#7a7a7a;stroke-linecap:round;stroke-linejoin:round"></path><line x1="195.09" y1="293.91" x2="196.84" y2="295.61" style="fill:none;stroke:#7a7a7a;stroke-linecap:round;stroke-linejoin:round"></line><line x1="186.74" y1="285.77" x2="192.53" y2="291.42" style="fill:none;stroke:#7a7a7a;stroke-linecap:round;stroke-linejoin:round"></line><line x1="187.8" y1="280.46" x2="197.37" y2="281.52" style="fill:none;stroke:#7a7a7a;stroke-linecap:round;stroke-linejoin:round"></line><path d="M242.62,178.27s-16.76,2-21.59,3.13-8.24,1.13-9.38,2.55S200.29,194.46,195.46,197s-19.32,6.54-19.61,7.39,2,15.06,1.42,19.6-1.13,7.39-1.13,7.39l27-10.51s-6.82,26.14-9.38,32.67-3.12,10.8-5.11,12.22-3.7,1.14-3.7,3.69,1.71,6,2.56,6.25,18.47-2,25.29-.85,32.67,12.22,38.07,15.91,5.68,2,7.67-2,2-12.21,2-13.07S281.83,228,281.83,228s3.12,23.58,6.25,25.29,10.51,1.42,13.92-5.4,10.51-17,7.11-25-8-17.9-10.52-23.59-4.83-6.25-11.36-8.8-23.87-10.8-25.57-11.08S242.62,178.27,242.62,178.27Z" style="fill:#fff;stroke:#263238;stroke-linecap:round;stroke-linejoin:round"></path><path d="M230.87,256.19c5.8,7.77,14.76,20.46,16.95,27.52" style="fill:none;stroke:#263238;stroke-linecap:round;stroke-linejoin:round"></path><path d="M225.77,249.54s.79,1,2.08,2.67" style="fill:none;stroke:#263238;stroke-linecap:round;stroke-linejoin:round"></path><path d="M253.72,281.86c.25.5.48,1,.71,1.48" style="fill:none;stroke:#263238;stroke-linecap:round;stroke-linejoin:round"></path><path d="M248.55,272.69s1.76,2.81,3.58,6.13" style="fill:none;stroke:#263238;stroke-linecap:round;stroke-linejoin:round"></path><path d="M199.32,273.06s18.37-1.11,22.41-.37" style="fill:none;stroke:#263238;stroke-linecap:round;stroke-linejoin:round"></path><path d="M218.05,274.52s11,1.11,15.44,2.94" style="fill:none;stroke:#263238;stroke-linecap:round;stroke-linejoin:round"></path><polygon points="281.83 227.99 278.82 218.09 278.27 226.81 266.28 226.26 278.82 233.62 281.83 227.99" style="fill:#263238;stroke:#263238;stroke-linecap:round;stroke-linejoin:round"></polygon><line x1="203.13" y1="221.74" x2="211.65" y2="191.34" style="fill:none;stroke:#263238;stroke-linecap:round;stroke-linejoin:round"></line><polygon points="207.39 205.83 204.16 197.66 203.61 216.46 199.53 217 203.13 220.89 207.39 205.83" style="fill:#263238;stroke:#263238;stroke-linecap:round;stroke-linejoin:round"></polygon><path d="M178.69,202.14s6.82,6.53,8,11.64-2.84,13.07-4.83,16.2-4.26,4-9.95,4.55-11.93-4.27-12.21-9.1S166.48,201,178.69,202.14Z" style="fill:#fff;stroke:#263238;stroke-linecap:round;stroke-linejoin:round"></path><path d="M229.27,211.51s-14.49,17.62-25.86,24.15-18.47,11.08-18.47,11.08l-4,19s15.91-2.27,20.74-4,6-2.56,6-2.56,10-21,16.77-32.67,7.67-13.35,7.67-13.35Z" style="fill:#263238;stroke:#263238;stroke-linecap:round;stroke-linejoin:round"></path><path d="M231.26,190.77c0,.85-2,20.74-2,20.74l2.84,1.71,18.75-13.93s.85-3.4-.28-3.4-10.23,6.53-10.23,6.53l-8-3.13.85-8.23Z" style="fill:#263238;stroke:#263238;stroke-linecap:round;stroke-linejoin:round"></path><path d="M241.19,201.82l-.84.6-1.07-.42-9.16.87c-.22,2.27-.43,4.41-.59,6l9.68-.92,9.17-6.82Z" style="fill:#7696FF;stroke:#263238;stroke-linecap:round;stroke-linejoin:round"></path><path d="M223.32,228.51l-11.64,1.11a57.54,57.54,0,0,1-8.27,6l-1.41.82,17.9-1.71C221.07,232.57,222.22,230.45,223.32,228.51Z" style="fill:#7696FF;stroke:#263238;stroke-linecap:round;stroke-linejoin:round"></path><path d="M183.58,253.27l28.29-2.69c.94-1.91,2-4,3.1-6.24l-30.12,2.87Z" style="fill:#7696FF;stroke:#263238;stroke-linecap:round;stroke-linejoin:round"></path><path d="M225.91,215.4c-1.61,1.82-3.7,4.1-6.07,6.52l7.74-.74c1.83-3.16,2.94-5.11,3.6-6.28Z" style="fill:#7696FF;stroke:#263238;stroke-linecap:round;stroke-linejoin:round"></path><path d="M244.61,173.16s-8.52,4.26-9.66,6.25-3.13,8.8-7.39,14.2-9.09,9.09-4.83,7.39S233,193,233,193l2.56,8s1.42.57,4-.57,8.23-5.11,8.23-2.84-1.7,13.35,0,11.65,2.56-7.39,9.38-12.79,12.79-8.52,13.07-14.77-1.7-7.67-7.39-9.09S245.18,172,244.61,173.16Z" style="fill:#fff;stroke:#263238;stroke-linecap:round;stroke-linejoin:round"></path><path d="M241.77,167.76s.85,4.54-1.71,11.93-8.52,23.58-3.41,21.88,25-17.9,26.71-20.17,6-19.33,6-19.33-16.76,4.55-21.6,5.12S241.77,167.76,241.77,167.76Z" style="fill:#a8a8a8;stroke:#263238;stroke-linecap:round;stroke-linejoin:round"></path><path d="M241.77,167.76a22,22,0,0,1-.58,8c24.22-4.66,28.14-13.71,28.14-13.71s-16.76,4.55-21.6,5.12S241.77,167.76,241.77,167.76Z" style="fill:#263238;stroke:#263238;stroke-linecap:round;stroke-linejoin:round"></path><path d="M277.85,155.26s-2.56-3.13,8.24-6.54,17.05-6.82,15.63-13.35-9.09-8.24-9.09-8.24,6.53-12.22,2.27-14.78-9.38,1.14-9.38,1.14,1.14-9.09-3.41-9.38-9.09,3.7-9.09,3.7-.28-9.38-8.24-7.67-5.11,9.94-5.11,9.94-9.09-3.69-12.22,2-.57,8-.57,8-3.12,1.14-3.12,4.27,2.84,6.25,5.11,6.53,5.68-1.42,8.53-.85,13.63,6.82,10.51,16.76.57,11.65,2,12.5S276.72,157.53,277.85,155.26Z" style="fill:#263238;stroke:#263238;stroke-linecap:round;stroke-linejoin:round"></path><path d="M275,139.06s4-4.83,4-7.95-10.8-10.8-17.33-10.8-15.91,7.95-15.91,9.94,0,3.13-1.42,4.55-6.82,4.26-8.24,7.39-6.25,23.58-5.12,24.71,7.58,2.36,9.38,2.28c6-.29,17.9,0,21.88-1.42a22.74,22.74,0,0,0,6.81-4,18.2,18.2,0,0,0,8-1.42c3.41-1.71,7.39-7.1,3.69-9.38s-9.09-1.13-9.09-1.13-.85-1.14.57-3.13,1.42-1.7,1.42-3.12S272.74,141.33,275,139.06Z" style="fill:#a8a8a8;stroke:#263238;stroke-linecap:round;stroke-linejoin:round"></path><path d="M254,131.67a8.87,8.87,0,0,1-3.7,4c-2.84,1.71-8.52,2.84-7.1,5.12s4.83,2.55,7.1,2.55a2.58,2.58,0,0,0,2.56-2.27" style="fill:none;stroke:#263238;stroke-linecap:round;stroke-linejoin:round"></path><path d="M242.34,147a60,60,0,0,0,9.66,1.13,25.69,25.69,0,0,0,10.51-1.7s-5.4,7.39-8.52,9.66A14.48,14.48,0,0,1,242.62,159c-4.26-.85-5.4-3.13-4.26-4.83S242.34,147,242.34,147Z" style="fill:#263238;stroke:#263238;stroke-linecap:round;stroke-linejoin:round"></path><path d="M259.42,150.43c1.74-2.13,3.09-4,3.09-4a25.69,25.69,0,0,1-10.51,1.7,60,60,0,0,1-9.66-1.13l-1.18,2.2A31.5,31.5,0,0,0,259.42,150.43Z" style="fill:#fff;stroke:#263238;stroke-linecap:round;stroke-linejoin:round"></path><path d="M238.13,154.56c-.69,1.64.59,3.61,4.49,4.39a13.93,13.93,0,0,0,9.89-1.88c.88-.56,1.48-1,1.48-1S246.82,158.74,238.13,154.56Z" style="fill:#fff;stroke:#263238;stroke-linecap:round;stroke-linejoin:round"></path><path d="M259.67,137.36s4-1.42,6.25,2" style="fill:none;stroke:#263238;stroke-linecap:round;stroke-linejoin:round"></path><path d="M250.29,134.51s-1.13-1.7-3.69,0" style="fill:none;stroke:#263238;stroke-linecap:round;stroke-linejoin:round"></path><path d="M264.5,129.12s3.69,1.7,4,7.38" style="fill:none;stroke:#263238;stroke-linecap:round;stroke-linejoin:round;stroke-width:2px"></path><path d="M253.42,128a7.06,7.06,0,0,0-6.25,2" style="fill:none;stroke:#263238;stroke-linecap:round;stroke-linejoin:round;stroke-width:2px"></path><path d="M294.62,227.71s-10.23,7.1-11.37,9.66S283.82,253,285,257s5.12,4.26,10.52,4.55,11.36.28,14.49-5.12,2.27-11.36-2.84-17.61A63.61,63.61,0,0,0,294.62,227.71Z" style="fill:#fff;stroke:#263238;stroke-linecap:round;stroke-linejoin:round"></path><path d="M302.29,161.22s-3.41-3.12-4.83-2.55-8.81,2.55-7.68,5.68,6.82,1.7,8.81,1.13A4.85,4.85,0,0,0,302.29,161.22Z" style="fill:#a8a8a8;stroke:#263238;stroke-linecap:round;stroke-linejoin:round"></path><path d="M310.53,161.22s-4-5.4-6.82-4.26-3.7,5.4-3.7,5.4-4.26.85-5.11,2.56l-.85,1.7s-3.7.28-4.27,2a12.32,12.32,0,0,0-.56,3.41,4,4,0,0,0-2.56,2.84c-.57,2.27,0,3.13,1.14,6s4.83,6.82,6,8.24,5.4,2.55,5.69,3.41.28,2.84-.86,9.09-4.26,22.44-6.82,31.25-5.39,11.65-2.27,19.32,6.54,8.81,10.8,7.67a19.58,19.58,0,0,0,13.64-13.64c2.27-8.52-.29-23-.29-32.67s.29-25.85,0-33S310.53,161.22,310.53,161.22Z" style="fill:#a8a8a8;stroke:#263238;stroke-linecap:round;stroke-linejoin:round"></path><path d="M214.49,164.35s-7.67,1.7-11.08,2.27-6-1.14-6.53-2.84-4.55-3.69-4.55-3.69,1.42-1.71,9.66-4,13.36,2,13.36,2Z" style="fill:#a8a8a8;stroke:#263238;stroke-linecap:round;stroke-linejoin:round"></path><path d="M187.56,167.7l6.7-2c2.84-.85,4.61-4.75,4.61-4.75s.28,2,2,1.7,9.38-.85,11.09-.85,8.52-2,8.52-4.55-6.25-9.37-7.39-11.36-4.54-2.84-6.82-2.84-4.54,1.42-11.36,5.68-11.37,6.54-12.79,8.52S159.37,196.17,158,200.43s-5.11,12.78-4.26,16.19c1.05,4.21,5.1,8.4,8.1,11.31,4.19,4.09,13.18,2.35,15.85-2.88,2.27-4.47,3-10.87,3-15.81,0-6.54-1.42-11.08,0-20.17S187.56,167.7,187.56,167.7Z" style="fill:#a8a8a8;stroke:#263238;stroke-linecap:round;stroke-linejoin:round"></path><path d="M210.23,162.64s0,2.56.85,2.84,6.54.57,6.82-1.13,0-2.56-1.42-3.13S210.8,160.94,210.23,162.64Z" style="fill:#a8a8a8;stroke:#263238;stroke-linecap:round;stroke-linejoin:round"></path><polyline points="198.87 160.94 201.42 158.95 199.43 156.96" style="fill:none;stroke:#263238;stroke-linecap:round;stroke-linejoin:round"></polyline><path d="M204.83,146.73s4.26,8.53,5.12,10.23.28,1.42-.86,2.27-5.39,3.13-5.39,3.13" style="fill:none;stroke:#263238;stroke-linecap:round;stroke-linejoin:round"></path><path d="M210,146.16s6,10.8,5.4,11.94-5.12,4.54-5.12,4.54" style="fill:none;stroke:#263238;stroke-linecap:round;stroke-linejoin:round"></path><path d="M214.78,148.72s4.26,7.1,3.69,9.09-2.93,3.37-2.93,3.37" style="fill:none;stroke:#263238;stroke-linecap:round;stroke-linejoin:round"></path></g><g id="freepik--Floor--inject-5"><line x1="488" y1="472.34" x2="20.06" y2="472.34" style="fill:none;stroke:#263238;stroke-linecap:round;stroke-linejoin:round"></line></g></svg>
